<svg id="svg" version="1.1" viewBox="0 0 300 300" width="300" height="300" xmlns="http://www.w3.org/2000/svg"><svg xmlns="http://www.w3.org/2000/svg"><defs><clipPath id="clip-1"><rect x="0" y="0" transform="scale(0.14648,0.14648)" width="2048" height="2048" fill="none"/></clipPath><linearGradient x1="209.03613" y1="207.83057" x2="91.30371" y2="91.23486" gradientUnits="userSpaceOnUse" id="color-1"><stop offset="0" stop-color="#33a24c"/><stop offset="1" stop-color="#396f62"/></linearGradient></defs><g clip-path="url(#clip-1)" fill="none" fill-rule="nonzero" stroke="none" stroke-width="1" stroke-linecap="butt" stroke-linejoin="miter" stroke-miterlimit="10" stroke-dasharray="" stroke-dashoffset="0" font-family="none" font-weight="none" font-size="none" text-anchor="none" style="mix-blend-mode: normal"><path d="M0,0h300v300h-300z" fill="#ffffff"/><path d="M149.42725,256.59082c-0.17139,-5.10205 -1.24951,-11.96484 -2.36133,-16.96582c-4.89214,-22.3623 -16.42866,-42.72363 -33.09624,-58.41504c-17.65679,-16.68604 -40.21318,-27.24756 -64.3355,-30.12598c-5.11523,-0.61816 -10.50747,-0.96973 -15.66094,-0.85107c-0.54185,0.01172 -0.56133,0.11719 -0.97661,-0.10693l-0.0145,-0.26221c0.40532,-0.24316 5.46855,-0.14648 6.39492,-0.17285c6.15688,-0.20801 12.2896,-0.87744 18.34629,-2.00244c43.47202,-8.30259 78.18486,-41.06074 88.98955,-83.9792c2.31152,-9.24287 3.46289,-18.61992 3.43945,-28.12178c-0.00146,-0.49072 -0.09375,-1.91045 0.25928,-2.22773c0.31494,0.62021 0.27246,6.71396 0.35303,8.03496c0.31934,5.87373 1.06055,11.71699 2.21631,17.48481c8.1958,39.87393 37.08984,72.32065 75.75,85.06494c8.74072,2.90024 17.80371,4.71812 26.98682,5.40952c1.94678,0.16699 3.89795,0.27393 5.85205,0.32373c1.01953,0.02344 4.22314,-0.1084 4.9292,0.34131c-0.39258,0.36328 -4.33594,0.18896 -5.12988,0.2168c-6.7998,0.23291 -13.80322,0.90527 -20.46387,2.2749c-41.01123,8.33203 -74.13574,38.50928 -86.23975,78.56836c-2.78027,9.24609 -4.05469,17.1958 -4.67725,26.74805l-0.31348,-0.12305c-0.07617,-0.41016 -0.14502,-0.71045 -0.24756,-1.11328z" fill="url(#color-1)"/><path d="M149.42725,256.59082c0.10254,0.40283 0.17139,0.70313 0.24756,1.11328l0.31348,0.12305c0.1333,1.30078 -0.13623,3.45117 -0.1377,4.8208c-0.00146,1.4209 0.08057,2.52393 -0.12305,3.94043l-0.06445,-0.01465c0.02637,-3.40137 -0.22998,-6.66943 -0.23584,-9.98291z" fill="#95d2a2"/></g></svg></svg>